<?xml version="1.0" encoding="UTF-8"?>
<svg xmlns="http://www.w3.org/2000/svg" version="1.1" viewBox="0 0 84.2 68">
  <defs>
    <style>
      .cls-1 {
        fill: #fff;
      }
    </style>
  </defs>
  <!-- Generator: Adobe Illustrator 28.7.4, SVG Export Plug-In . SVG Version: 1.2.0 Build 166)  -->
  <g>
    <g id="Capa_2">
      <g id="Capa_1-2">
        <path class="cls-1" d="M81.3,19C80.5,7.6,72.8-.5,60.3,0c-13.2.6-26.3.1-39.5.1,0,11.2-.1,22.5-.1,33.7h0s0,0,0,0h0s0,0,0,0h19.4c0,0,0,0,0,0,0-3,0-6,0-9s1.2-4,3.9-4c3.7,0,7.3-.2,10.9.1,4.9.5,8,7.6,5.2,11.6-1,1.4-2.6,1.3-4.1,1.3-5.3,0-10.7,0-16,0h0c0,0,0,0,0,0,0,2.5.2,5.1,0,7.6-.2,4.6-.4,4.8-5,5.9-.6.2-1.2.3-1.9.4-11.2,1.7-12.6.5-12.6-10.8,0-1,0-2.1,0-3.1h0c-4.9,0-9.9,0-14.8,0-3.2,0-4.8,1.3-5.1,4.4-.1,1.1-.6,2.1-.6,3.2,0,7.3,0,14.7-.1,22,0,2.6,1,4.2,3.8,4.1,14.6-.3,29.3,1.3,43.9-1.4,4.9-.9,9.5-2.8,11.6-8,.1-.3.6-.5,1-.7.2.4.5.7.5,1.1.1,3,.2,6,.3,9,6.5,0,13,0,19.4.3,2.5.1,3.6-.8,3.7-3.2,0-1.3,0-2.6,0-3.9.2-14-1.9-28-2.9-41.9h0Z"/>
      </g>
    </g>
  </g>
</svg>